<svg xmlns="http://www.w3.org/2000/svg" viewBox="0 0 640 640" width="500" height="500"><path id="a" fill-opacity="0" pathLength="1000" stroke="#65e496" stroke-width="5" d="M405.9 274.06c67.18 119.19 84.34 237.02 38.28 262.98C398.13 563 306.2 487.31 239.03 368.13c-67.18-119.19-84.34-237.02-38.28-262.98 46.05-25.96 137.98 49.73 205.15 168.91z"/><path id="b" fill-opacity="0" pathLength="1000" stroke="#65e496" stroke-width="5" d="M402.81 368.13c-68.75 118.28-161.67 192.75-207.37 166.19-45.71-26.57-27-144.16 41.75-262.45 68.75-118.28 161.67-192.75 207.37-166.19 45.71 26.57 27 144.16-41.75 262.45z"/><path id="c" fill-opacity="0" pathLength="1000" stroke="#65e496" stroke-width="5" d="M323.21 219.49c136.8-1.9 248.45 39.47 249.19 92.33.73 52.86-109.74 97.31-246.53 99.21-136.8 1.9-248.46-39.47-249.2-92.33-.73-52.86 109.74-97.32 246.54-99.21z"/><circle r="10" fill="#65e496"><animateMotion dur="10s" repeatCount="indefinite"><mpath href="#a"/></animateMotion></circle><circle r="10" fill="#65e496"><animateMotion dur="11s" repeatCount="indefinite" keyPoints="1;0" keyTimes="0;1" calcMode="linear"><mpath href="#b"/></animateMotion></circle><circle r="10" fill="#65e496"><animateMotion dur="10s" repeatCount="indefinite"><mpath href="#c"/></animateMotion></circle><svg xmlns="http://www.w3.org/2000/svg" xmlns:xlink="http://www.w3.org/1999/xlink" xmlns:svgjs="http://svgjs.com/svgjs" width="260" height="260" x="193" y="215" viewBox="0 0 480 479"><path xmlns="http://www.w3.org/2000/svg" d="M440 8.5v288H272c-17.672 0-32 14.328-32 32v-288c0-17.672 14.328-32 32-32zm0 0" fill="#fff" data-original="#78b9eb"/><path xmlns="http://www.w3.org/2000/svg" d="M208 8.5H40v288h168c17.672 0 32 14.328 32 32v-288c0-17.672-14.328-32-32-32zm0 0" fill="#fff" data-original="#5aaae7"/><path xmlns="http://www.w3.org/2000/svg" d="M272 296.5c-17.672 0-32 14.328-32 32v32h200v-64zm0 0" fill="#fff" data-original="#787680"/><path xmlns="http://www.w3.org/2000/svg" d="M440 296.5v16H272c-17.672 0-32 14.328-32 32v-16c0-17.672 14.328-32 32-32zm0 0" fill="#fff" data-original="#57565c"/><path xmlns="http://www.w3.org/2000/svg" d="M440 296.5v64h32v-320h-32zM40 40.5H8v320h32zm0 0" fill="#fff" data-original="#ffa733"/><path xmlns="http://www.w3.org/2000/svg" d="M208 296.5H40v64h200v-32c0-17.672-14.328-32-32-32zm0 0" fill="#fff" data-original="#787680"/><path xmlns="http://www.w3.org/2000/svg" d="M240 328.5v16c0-17.672-14.328-32-32-32H40v-16h168c17.672 0 32 14.328 32 32zm0 0" fill="#fff" data-original="#57565c"/><path xmlns="http://www.w3.org/2000/svg" d="M328 328.5v80l24-24 24 24v-80zm0 0" fill="#fff" data-original="#ff6243"/><path xmlns="http://www.w3.org/2000/svg" d="M440 8.5v288H281.762c66.957-65.68 125.758-158.078 155.597-288zm0 0" fill="#fff" data-original="#5aaae7"/><path xmlns="http://www.w3.org/2000/svg" d="M440 40.5h16v320h-16zm-416 0h16v320H24zm0 0" fill="#fff" data-original="#ff9811"/><path xmlns="http://www.w3.org/2000/svg" d="M472 32.5h-24v-24a8 8 0 00-8-8H272a39.854 39.854 0 00-32 16.246A39.854 39.854 0 00208 .5H40a8 8 0 00-8 8v24H8a8 8 0 00-8 8v320a8 8 0 008 8h312v40c0 3.234 1.95 6.152 4.938 7.39s6.43.551 8.718-1.734L352 395.812l18.344 18.344A8.001 8.001 0 00376 416.5a7.849 7.849 0 003.063-.61A8.002 8.002 0 00384 408.5v-40h88a8 8 0 008-8v-320a8 8 0 00-8-8zm-200-16h160v272H272a39.604 39.604 0 00-24 8.207V40.5c0-13.254 10.746-24 24-24zm-224 0h160c13.254 0 24 10.746 24 24v256.207a39.604 39.604 0 00-24-8.207H48zm-32 32h16v304H16zm32 256h160a24.003 24.003 0 0122.527 16H80v16h152v16H48zm200 48v-16h72v16zm120 36.688l-10.344-10.344a8.004 8.004 0 00-11.312 0L336 389.188V336.5h32zm16-52.688h16v-16H249.473a24.003 24.003 0 0122.527-16h160v48h-48zm80 16h-16v-304h16zm0 0" data-original="#000000"/><path xmlns="http://www.w3.org/2000/svg" d="M80 72.5h112v16H80zm0 48h112v16H80zm0 48h112v16H80zm0 48h112v16H80zm208-144h112v16H288zm0 48h112v16H288zm0 48h112v16H288zm0 48h112v16H288zm0 0" data-original="#000000"/></svg></svg>